<?xml version="1.0" encoding="UTF-8"?>
<!DOCTYPE svg PUBLIC "-//W3C//DTD SVG 1.1//EN" "http://www.w3.org/Graphics/SVG/1.1/DTD/svg11.dtd">
<svg xmlns="http://www.w3.org/2000/svg" version="1.1" width="655px" height="419px" style="shape-rendering:geometricPrecision; text-rendering:geometricPrecision; image-rendering:optimizeQuality; fill-rule:evenodd; clip-rule:evenodd" xmlns:xlink="http://www.w3.org/1999/xlink">
<g><path style="opacity:1" fill="#fefefe" d="M -0.5,-0.5 C 217.833,-0.5 436.167,-0.5 654.5,-0.5C 654.5,139.167 654.5,278.833 654.5,418.5C 436.167,418.5 217.833,418.5 -0.5,418.5C -0.5,278.833 -0.5,139.167 -0.5,-0.5 Z"/></g>
<g><path style="opacity:1" fill="#8b75a0" d="M 299.5,148.5 C 292.5,148.5 285.5,148.5 278.5,148.5C 278.5,174.5 278.5,200.5 278.5,226.5C 277.502,200.339 277.169,174.005 277.5,147.5C 285.019,147.175 292.352,147.508 299.5,148.5 Z"/></g>
<g><path style="opacity:1" fill="#4a266a" d="M 342.5,272.5 C 340.541,266.25 339.874,259.584 340.5,252.5C 353.394,247.748 360.227,238.415 361,224.5C 361.5,198.835 361.667,173.169 361.5,147.5C 368.5,147.5 375.5,147.5 382.5,147.5C 382.667,175.169 382.5,202.835 382,230.5C 378.867,254.128 365.7,268.128 342.5,272.5 Z"/></g>
<g><path style="opacity:1" fill="#4b286b" d="M 404.5,148.5 C 412.343,147.18 420.343,147.18 428.5,148.5C 444.817,189.447 460.15,230.781 474.5,272.5C 466.275,273.815 458.108,273.815 450,272.5C 435.296,230.876 420.129,189.543 404.5,148.5 Z"/></g>
<g><path style="opacity:1" fill="#4b276b" d="M 502.5,147.5 C 510.174,147.334 517.841,147.5 525.5,148C 512.204,180.095 499.037,212.261 486,244.5C 482.265,234.461 478.431,224.461 474.5,214.5C 483.841,192.138 493.174,169.804 502.5,147.5 Z"/></g>
<g><path style="opacity:1" fill="#824e8b" d="M 212.5,193.5 C 213.165,190.183 213.499,186.683 213.5,183C 213.488,179.098 212.821,175.598 211.5,172.5C 206.884,171.322 204.05,168.322 203,163.5C 202.167,152.333 207.333,147.167 218.5,148C 227.404,151.311 230.238,157.478 227,166.5C 225.128,170.271 222.128,172.604 218,173.5C 217.667,181.167 217.333,188.833 217,196.5C 205.409,205.379 193.909,214.379 182.5,223.5C 181.167,231.5 181.167,239.5 182.5,247.5C 191.432,251.105 193.932,257.438 190,266.5C 185.272,272.401 179.439,273.901 172.5,271C 166.529,265.965 165.029,259.798 168,252.5C 170.13,249.77 172.797,247.77 176,246.5C 176.831,238.812 176.665,231.145 175.5,223.5C 163.984,214.249 152.317,205.249 140.5,196.5C 141.134,188.097 140.467,180.097 138.5,172.5C 136.097,172.607 134.264,171.607 133,169.5C 127.945,162.556 128.445,156.056 134.5,150C 141.281,146.254 147.448,147.088 153,152.5C 156.446,158.383 156.112,164.05 152,169.5C 150.266,171.451 148.099,172.451 145.5,172.5C 145.334,179.508 145.5,186.508 146,193.5C 156,201.5 166,209.5 176,217.5C 176.667,209.833 176.667,202.167 176,194.5C 167.61,190.763 164.61,184.43 167,175.5C 175,166.167 183,166.167 191,175.5C 192.759,182.009 191.259,187.509 186.5,192C 184.975,193.009 183.308,193.509 181.5,193.5C 181.334,201.507 181.5,209.507 182,217.5C 192.042,209.286 202.209,201.286 212.5,193.5 Z"/></g>
<g><path style="opacity:1" fill="#4a266a" d="M 299.5,148.5 C 299.333,175.169 299.5,201.835 300,228.5C 302.036,240.293 308.536,248.293 319.5,252.5C 319.5,259.167 319.5,265.833 319.5,272.5C 318.167,272.5 316.833,272.5 315.5,272.5C 297.369,267.871 285.535,256.538 280,238.5C 279.499,234.49 278.999,230.49 278.5,226.5C 278.5,200.5 278.5,174.5 278.5,148.5C 285.5,148.5 292.5,148.5 299.5,148.5 Z"/></g>
<g><path style="opacity:1" fill="#f5f1f6" d="M 139.5,152.5 C 147.32,152.152 150.82,155.819 150,163.5C 145,170.167 140,170.167 135,163.5C 134.333,161.5 134.333,159.5 135,157.5C 136.366,155.638 137.866,153.972 139.5,152.5 Z"/></g>
<g><path style="opacity:1" fill="#f5f1f6" d="M 212.5,152.5 C 220.32,152.152 223.82,155.819 223,163.5C 218,170.167 213,170.167 208,163.5C 207.333,161.5 207.333,159.5 208,157.5C 209.366,155.638 210.866,153.972 212.5,152.5 Z"/></g>
<g><path style="opacity:1" fill="#bea2c2" d="M 138.5,172.5 C 140.467,180.097 141.134,188.097 140.5,196.5C 139.805,188.599 139.138,180.599 138.5,172.5 Z"/></g>
<g><path style="opacity:1" fill="#bda1c1" d="M 211.5,172.5 C 212.821,175.598 213.488,179.098 213.5,183C 213.499,186.683 213.165,190.183 212.5,193.5C 212.795,186.412 212.462,179.412 211.5,172.5 Z"/></g>
<g><path style="opacity:1" fill="#785d8f" d="M 319.5,252.5 C 320.491,259.313 320.825,266.313 320.5,273.5C 318.585,273.784 316.919,273.451 315.5,272.5C 316.833,272.5 318.167,272.5 319.5,272.5C 319.5,265.833 319.5,259.167 319.5,252.5 Z"/></g>
<g><path style="opacity:1" fill="#cec4d7" d="M 340.5,252.5 C 339.874,259.584 340.541,266.25 342.5,272.5C 341.791,273.404 340.791,273.737 339.5,273.5C 339.175,266.313 339.509,259.313 340.5,252.5 Z"/></g>
</svg>
